# xmcd CD database file
#
# Track frame offsets:
#	150
#	24367
#	50672
#
# Disc length: 921 seconds
#
# Revision: 0
# Processed by: cddbd v1.5.1PL0 Copyright (c) Steve Scherf et al.
# Submitted via: CDex 1.51
#
DISCID=1d039703
DTITLE=GAKU-MC - Life Music
DYEAR=1900
DGENRE=Rap
TTITLE0=Life Music [Lovers MC MIX]
TTITLE1=Life Music [DJ FUMIYA MIX]
TTITLE2=Life Music [Original Version]
EXTD=
EXTT0=
EXTT1=
EXTT2=
PLAYORDER=
